<svg xmlns="http://www.w3.org/2000/svg" width="242" height="201" fill="none"><path fill="#3B2281" d="M211.814 154.983a5.538 5.538 0 1 0 .001-11.077 5.538 5.538 0 0 0-.001 11.077Z"/><path fill="#785CC3" d="M230.146 86.711a7.879 7.879 0 0 0 7.879-7.879 7.879 7.879 0 1 0-15.758 0 7.88 7.88 0 0 0 7.879 7.88Z"/><path fill="#6247AD" d="M23.775 101.925a4.561 4.561 0 1 0 0-9.123 4.561 4.561 0 0 0 0 9.123Z"/><path fill="#666AF6" d="M62.784 191.294a5.193 5.193 0 1 0 0-10.386 5.193 5.193 0 0 0 0 10.386Z"/><path fill="#A28CE1" d="M86.446 117.139a2.424 2.424 0 1 0 0-4.849 2.424 2.424 0 0 0 0 4.849Z"/><path fill="#E1E4E5" d="M184.036 191.045a3.115 3.115 0 1 0-.001-6.23 3.115 3.115 0 0 0 .001 6.23ZM14.532 143.566a4.499 4.499 0 1 0 0-8.997 4.499 4.499 0 0 0 0 8.997ZM238.179 142.439a3.426 3.426 0 1 0 0-6.852 3.426 3.426 0 0 0 0 6.852ZM215.581 45.095a3.809 3.809 0 1 0 0-7.617 3.809 3.809 0 0 0 0 7.617ZM3.422 77.967a3.422 3.422 0 1 0 0-6.843 3.422 3.422 0 0 0 0 6.843ZM59.428 30.085a4.549 4.549 0 1 0 0-9.097 4.549 4.549 0 0 0 0 9.097ZM180.664 17.915a5.202 5.202 0 1 0-.001-10.403 5.202 5.202 0 0 0 .001 10.403ZM22.681 49.89h.05c.295 4.182 3.405 4.244 3.405 4.244s-3.43.067-3.43 4.903c0-4.832-3.43-4.903-3.43-4.903s3.11-.062 3.405-4.245Zm3.572 112.066h.05c.282 4.171 3.268 4.233 3.268 4.233s-3.293.066-3.293 4.885c0-4.819-3.293-4.885-3.293-4.885s2.985-.062 3.268-4.233Z"/><path fill="#fff" fill-rule="evenodd" d="M187.773 118.843v36.182c0 6.79-3.742 13.031-9.733 16.224l-46.884 25.03a18.39 18.39 0 0 1-17.301 0l-46.88-25.03a18.39 18.39 0 0 1-9.734-16.224v-36.182" clip-rule="evenodd"/><path stroke="#E1E4E5" stroke-width="4" d="M187.773 118.843v36.182c0 6.79-3.742 13.031-9.733 16.224l-46.884 25.03a18.39 18.39 0 0 1-17.301 0l-46.88-25.03a18.39 18.39 0 0 1-9.734-16.224v-36.182"/><path fill="#fff" fill-rule="evenodd" stroke="#E1E4E5" stroke-width="4" d="m96.196 35.029 110.837 57.204c4.511 2.328 6.282 7.875 3.954 12.386a9.187 9.187 0 0 1-3.842 3.896l-41.367 22.062a18.389 18.389 0 0 1-17.08.12L37.886 73.469c-4.51-2.329-6.282-7.875-3.954-12.387a9.187 9.187 0 0 1 3.842-3.896l41.367-22.061a18.38 18.38 0 0 1 17.051-.1l.004.004Z" clip-rule="evenodd"/><path fill="#E1E4E5" d="M158.311 116.028c1.933 0 3.501-1.252 3.501-2.798 0-1.545-1.568-2.798-3.501-2.798-1.934 0-3.501 1.253-3.501 2.798 0 1.546 1.567 2.798 3.501 2.798Z"/><path stroke="#E1E4E5" stroke-width="4" d="M148.723 35.029 37.886 92.233c-4.51 2.328-6.282 7.875-3.954 12.386a9.186 9.186 0 0 0 3.842 3.896l41.367 22.062a18.39 18.39 0 0 0 17.08.12L207.03 73.473c4.511-2.329 6.282-7.875 3.954-12.387a9.194 9.194 0 0 0-3.842-3.896L165.774 35.13a18.378 18.378 0 0 0-17.051-.1ZM122.462 198.446v-81.32"/><path stroke="#E1E4E5" stroke-linecap="round" stroke-linejoin="round" stroke-width="4.05" d="M33.442 170.7h8.42m-17.967-4.49h17.966m-7.858 9.264h7.858m165.176-4.774h-8.42m17.966-4.49h-17.966m7.859 9.264h-7.859"/><path fill="#E362A3" fill-rule="evenodd" d="M79.361 54.43V32.613c0-7.338 3.9-14.124 10.245-17.816l20.615-12a20.619 20.619 0 0 1 20.739 0l20.615 12a20.615 20.615 0 0 1 10.249 17.816V54.43c0 7.338-3.9 14.124-10.245 17.816l-20.614 12a20.62 20.62 0 0 1-20.74 0l-20.615-12A20.615 20.615 0 0 1 79.361 54.43Z" clip-rule="evenodd"/><path stroke="#fff" stroke-linecap="round" stroke-linejoin="round" stroke-width="10" d="M120.587 59.556c-.628 0-1.14.508-1.14 1.14v.008a1.145 1.145 0 0 0 1.185 1.106 1.141 1.141 0 0 0 1.106-1.106c0-.632-.515-1.148-1.147-1.144"/><path fill="#fff" d="M128.656 22.147c-4.444-4.004-11.951-4.124-16.736-.72a12.954 12.954 0 0 0-3.263 3.342c-.66 1.041-.841 2.283-.46 3.444a3.928 3.928 0 0 0 2.442 2.462c1.702.58 3.583-.08 4.604-1.642 1.602-2.422 5.586-3.183 7.868-1.24.76.64 1.121 1.58 1.121 2.862 0 2.462-2.182 4.064-3.804 5.625a21.116 21.116 0 0 0-3.243 4.104c-.66 1.081-1.121 2.422-1.361 4.024a3.955 3.955 0 0 0 .921 3.203c.761.88 1.842 1.361 3.043 1.361 1.441 0 2.742-.84 3.403-2.102.62-1.181.6-2.542 1.401-3.643 2.883-4.044 7.527-7.007 7.527-12.432 0-3.664-1.181-6.566-3.503-8.668l.04.02Z"/></svg>